# xmcd CD database file
#
# Track frame offsets:
#	150
#	4407
#	5597
#	23483
#	39318
#	57954
#	59809
#	76596
#	92910
#	114729
#	116745
#	117701
#	134092
#	152116
#	171978
#	174971
#	198180
#	204090
#	228095
#	243523
#	245271
#	271752
#	273898
#	291665
#
# Disc length: 4196 seconds
#
# Revision: 2
# Processed by: cddbd v1.5.1PL2 Copyright (c) Steve Scherf et al.
# Submitted via: CDex 1.70beta2
#
DISCID=4f106218
DTITLE=Каста - Хамиль - Феникс
DYEAR=2004
DGENRE=Rap
TTITLE0=Приглашение
TTITLE1=Узник (предисловие)
TTITLE2=Пир
TTITLE3=Сестра
TTITLE4=Пристань
TTITLE5=Колыбель
TTITLE6=Для великих открытий
TTITLE7=Под одним небом
TTITLE8=Черви ненависти
TTITLE9=Дальше - больше (антракт)
TTITLE10=Ты еще в майке вышел в ноябре... (скит)
TTITLE11=Гончая
TTITLE12=Вечер красит Город
TTITLE13=Затмение (трилогия)
TTITLE14=Держись подольше...
TTITLE15=Наяву или во сне (трилогия)
TTITLE16=Уже вечны...
TTITLE17=Секрет (трилогия)
TTITLE18=Феникс
TTITLE19=Ярмарка (предисловие)
TTITLE20=Кукловод
TTITLE21=Черные дожди (предисловие)
TTITLE22=Стон искалеченных земель
TTITLE23=Радость битвы
EXTD=YEAR: 2004
EXTT0=
EXTT1=
EXTT2=
EXTT3=
EXTT4=
EXTT5=
EXTT6=
EXTT7=
EXTT8=
EXTT9=
EXTT10=
EXTT11=
EXTT12=
EXTT13=
EXTT14=
EXTT15=
EXTT16=
EXTT17=
EXTT18=
EXTT19=
EXTT20=
EXTT21=
EXTT22=
EXTT23=
PLAYORDER=
